<svg width="334" height="323" viewBox="0 0 334 323" fill="none" xmlns="http://www.w3.org/2000/svg">
<path d="M147.496 180.927C147.496 157.296 133.584 138.071 116.482 138.071C99.3807 138.071 85.4686 157.296 85.4686 180.927C85.4686 204.557 99.3807 223.782 116.482 223.782C133.584 223.782 147.496 204.557 147.496 180.927ZM99.7537 181.491C99.7537 168.1 107.327 157.244 116.67 157.244C126.013 157.244 133.587 168.1 133.587 181.491C133.587 194.882 126.013 205.738 116.67 205.738C107.327 205.738 99.7537 194.882 99.7537 181.491ZM221.742 138.071C204.64 138.071 190.728 157.296 190.728 180.927C190.728 204.557 204.64 223.782 221.742 223.782C238.843 223.782 252.756 204.557 252.756 180.927C252.756 157.296 238.843 138.071 221.742 138.071ZM221.929 205.738C212.586 205.738 205.012 194.882 205.012 181.491C205.012 168.1 212.586 157.244 221.929 157.244C231.272 157.244 238.846 168.1 238.846 181.491C238.846 194.882 231.272 205.738 221.929 205.738ZM220.623 240.782C221.233 241.837 220.748 243.485 220.09 244.675C209.352 264.087 184.53 276.917 160.977 275.223C158.564 275.046 156.165 274.719 153.794 274.243H153.791C133.883 270.25 119.661 256.657 111.235 245.959C110.623 245.181 109.244 243.185 109.683 241.47C109.801 241.043 110.025 240.653 110.332 240.334C110.639 240.015 111.021 239.778 111.443 239.644C111.803 239.55 112.176 239.506 112.548 239.514C113.099 239.525 113.649 239.565 114.196 239.633C147.234 243.04 176.988 243.406 205.162 240.734C206.803 240.58 208.453 240.353 210.105 240.124C212.411 239.806 214.59 239.507 216.764 239.395C218.145 239.32 219.964 239.646 220.623 240.782Z" fill="white"/>
<path d="M285.841 223.118C285.876 222.995 285.895 222.87 285.941 222.749C286.038 222.491 295.679 196.306 285.483 176.75C280.441 167.081 271.207 160.47 258.042 157.107L258.027 157.102C257.329 156.923 256.685 156.579 256.148 156.1C255.61 155.621 255.195 155.021 254.937 154.348C254.679 153.676 254.586 152.952 254.664 152.237C254.743 151.521 254.992 150.834 255.39 150.235C255.726 147.186 255.885 144.121 255.866 141.054L255.875 140.646C255.985 135.866 255.839 130.307 253.914 125.3C251.284 118.45 245.824 114.011 241.709 111.494C238.951 109.817 236.002 108.477 232.925 107.502C232.128 107.293 226.456 106.247 224.033 105.8C221.139 105.266 219.295 104.921 218.289 103.594C195.775 123.122 169.494 137.824 141.072 146.79C147.804 155.415 152.007 167.525 152.007 180.927C152.128 191.542 149.305 201.983 143.851 211.091C157.129 207.07 173.593 200.565 186.951 190.522C186.461 187.347 186.215 184.139 186.217 180.927C186.217 154.809 202.153 133.56 221.742 133.56C241.33 133.56 257.267 154.809 257.267 180.927C257.267 207.044 241.33 228.293 221.742 228.293C205.936 228.293 192.514 214.455 187.917 195.391C172.329 206.568 153.279 213.294 139.416 217.059C133.223 224.059 125.218 228.293 116.482 228.293C111.229 228.259 106.091 226.754 101.649 223.95C76.9491 226.355 53.8618 226.69 46.3346 226.732C41.6862 228.818 25.4871 238.682 23.3704 240.322C18.6415 244.602 14.9716 249.922 12.6502 255.862C10.3288 261.803 9.41934 268.202 9.99355 274.554C10.7009 281.009 12.9404 287.202 16.5255 292.616C20.1106 298.031 24.9375 302.511 30.6041 305.682C41.8296 311.863 55.1057 312.992 68.784 311.947C115.55 304.391 251.093 278.125 285.841 223.118ZM224.037 246.86C213.024 266.765 189.384 279.891 165.371 279.893C163.796 279.893 162.223 279.836 160.651 279.721C158.049 279.531 155.461 279.179 152.904 278.666H152.906C136.082 275.292 120.447 264.946 107.694 248.752C105.489 245.952 104.643 242.97 105.312 240.351C105.627 239.163 106.242 238.076 107.097 237.193C107.952 236.31 109.019 235.661 110.196 235.309C111.659 234.963 113.176 234.907 114.661 235.146C147.399 238.52 176.86 238.881 204.737 236.245C206.314 236.095 207.9 235.875 209.488 235.657C211.788 235.339 214.162 235.011 216.53 234.888C220.099 234.703 223.108 236.062 224.53 238.527C225.865 240.84 225.687 243.875 224.037 246.86ZM324.841 270.342C323.739 288.396 304.446 303.453 285.954 308.997C267.912 314.407 248.071 313.506 228.879 312.643C225.134 312.473 221.411 312.303 217.729 312.182C195.177 311.403 172.687 309.362 150.364 306.068C148.022 305.724 145.547 305.198 142.923 304.642C140.583 304.146 138.213 303.648 135.833 303.248C192.405 289.518 261.706 265.746 287.871 228.209C288 228.294 288.134 228.372 288.272 228.443C313.519 240.077 325.823 254.175 324.841 270.342ZM50.9393 221.009C46.6353 203.264 48.0295 188.638 55.0803 177.537C64.6289 162.506 81.6733 158.882 81.8319 158.849C82.4728 158.722 83.0785 158.458 83.6072 158.074C84.1359 157.69 84.575 157.196 84.894 156.626C85.213 156.056 85.4044 155.423 85.4549 154.772C85.5054 154.121 85.4138 153.466 85.1865 152.853C79.7459 138.192 79.746 125.023 85.1889 113.707C94.3677 94.6189 116.313 86.3644 118.773 85.4904C120.825 85.8163 122.901 85.9668 124.978 85.9404C134.439 85.9404 149.038 83.6166 160.609 77.2707C160.869 77.1287 161.098 76.9367 161.284 76.7058C161.47 76.4749 161.609 76.2096 161.692 75.925C161.776 75.6405 161.802 75.3424 161.77 75.0476C161.738 74.7528 161.648 74.4673 161.506 74.2073C161.364 73.9472 161.171 73.7179 160.94 73.5322C160.709 73.3466 160.443 73.2084 160.159 73.1255C159.874 73.0426 159.576 73.0166 159.281 73.0491C158.986 73.0815 158.701 73.1717 158.441 73.3146C145.515 80.4021 129.477 81.8407 122.101 81.4113C122.126 81.0875 122.116 80.7619 122.07 80.4403C121.126 74.2265 120.053 67.1846 121.112 61.3122C121.802 57.5016 124.027 54.9002 126.841 51.6072C128.289 49.9682 129.652 48.2575 130.927 46.4815C137.441 37.1455 135.243 27.8976 133.302 19.7377C133 18.4657 132.694 17.1782 132.412 15.8731C131.96 13.7651 132.163 11.9072 132.928 11.1395C138.287 5.75512 161.589 16.6914 175.933 26.9031C189.47 36.5846 200.257 49.6195 207.235 64.7286C211.743 74.4545 214.601 86.7172 216.943 98.7413C208.348 106.632 180.025 130.369 137.919 143.056L137.976 143.248C132.004 137.176 124.555 133.56 116.482 133.56C96.8938 133.56 80.9574 154.809 80.9574 180.927C80.9574 197.076 87.055 211.357 96.3374 219.911C77.5952 221.551 60.3721 222.035 51.0541 222.174C51.067 221.788 51.03 221.403 50.9438 221.027V221.024L50.9393 221.009Z" fill="#845932"/>
<path d="M116.67 157.244C126.013 157.244 133.587 168.1 133.587 181.491C133.587 194.882 126.013 205.738 116.67 205.738C107.327 205.738 99.7537 194.882 99.7537 181.491C99.7537 168.1 107.327 157.244 116.67 157.244ZM333.845 270.891C332.431 294.103 309.371 311.396 288.545 317.641C276.223 321.334 263.456 322.323 250.701 322.323C243.258 322.323 235.819 321.986 228.471 321.654C224.762 321.486 221.077 321.321 217.431 321.2C194.541 320.41 171.714 318.338 149.056 314.993C146.43 314.61 143.697 314.028 141.051 313.466C135.159 312.218 129.066 310.922 123.921 311.698C117.817 312.618 111.352 313.936 104.509 315.328C78.8165 320.566 49.6927 326.491 26.2517 313.585C19.3294 309.774 13.4262 304.353 9.04084 297.78C4.6555 291.206 1.9169 283.674 1.05647 275.819C0.196037 267.964 1.23907 260.017 4.09739 252.65C6.95572 245.283 11.5453 238.713 17.4785 233.494C18.8771 232.247 27.2429 227.152 31.0756 224.879C35.7892 222.084 39.0097 220.289 41.2849 219.163C37.5206 200.627 39.6197 184.973 47.5384 172.583C55.8294 159.616 68.3118 153.763 75.1666 151.4C70.4661 136.117 71.1071 122.119 77.0917 109.727C86.1382 90.9867 104.757 81.5042 112.617 78.2046C111.795 72.3873 111.141 65.7682 112.236 59.7087C113.357 53.4949 116.879 49.3759 119.987 45.7436C121.253 44.2613 122.452 42.8604 123.526 41.3185C127.729 35.2986 126.315 29.3524 124.524 21.8248C124.207 20.4877 123.886 19.1363 123.593 17.7652C122.465 12.5162 123.54 7.78041 126.535 4.77161C140.19 -8.93789 177.014 16.5956 181.166 19.5527C195.979 30.1437 207.783 44.4047 215.42 60.9356C220.308 71.4776 223.33 84.3501 225.786 96.9494C232.747 98.2336 234.877 98.6565 235.667 98.9076C239.433 100.101 243.042 101.743 246.416 103.798C254.029 108.454 259.535 114.769 262.337 122.064C264.84 128.576 265.018 135.525 264.892 140.853L264.888 141.19C264.833 144.864 264.723 147.567 264.542 149.591C278.084 153.944 287.816 161.677 293.507 172.627C303.08 191.041 298.281 213.088 295.673 221.978C322.186 235.058 335.024 251.501 333.845 270.891ZM50.9393 221.009L50.9438 221.024V221.027C51.03 221.403 51.0671 221.788 51.0541 222.174C60.3721 222.035 77.5952 221.551 96.3374 219.911C87.055 211.357 80.9574 197.076 80.9574 180.927C80.9574 154.81 96.8938 133.56 116.482 133.56C124.555 133.56 132.004 137.176 137.976 143.248L137.919 143.056C180.025 130.369 208.348 106.632 216.943 98.7413C214.601 86.7172 211.743 74.4545 207.235 64.7286C200.257 49.6196 189.47 36.5846 175.933 26.9031C161.589 16.6914 138.287 5.75513 132.928 11.1395C132.163 11.9072 131.96 13.7651 132.412 15.8731C132.694 17.1782 133 18.4657 133.302 19.7377C135.243 27.8976 137.441 37.1455 130.927 46.4815C129.652 48.2575 128.288 49.9682 126.841 51.6072C124.027 54.9002 121.802 57.5016 121.112 61.3122C120.053 67.1846 121.126 74.2265 122.07 80.4403C122.116 80.7619 122.126 81.0875 122.101 81.4113C129.477 81.8407 145.515 80.4021 158.441 73.3146C158.701 73.1718 158.986 73.0815 159.281 73.0491C159.576 73.0166 159.874 73.0426 160.159 73.1255C160.443 73.2084 160.709 73.3466 160.94 73.5323C161.171 73.7179 161.364 73.9473 161.506 74.2073C161.648 74.4673 161.738 74.7529 161.77 75.0476C161.802 75.3424 161.776 75.6405 161.692 75.9251C161.609 76.2096 161.47 76.4749 161.285 76.7058C161.099 76.9367 160.869 77.1287 160.609 77.2707C149.038 83.6166 134.439 85.9404 124.978 85.9404C122.901 85.9668 120.825 85.8163 118.773 85.4904C116.313 86.3644 94.3677 94.6189 85.1889 113.707C79.7461 125.023 79.7461 138.192 85.1866 152.853C85.4139 153.466 85.5054 154.121 85.4549 154.772C85.4044 155.423 85.213 156.056 84.894 156.626C84.575 157.196 84.1359 157.69 83.6072 158.074C83.0785 158.458 82.4728 158.722 81.8319 158.849C81.6733 158.882 64.629 162.506 55.0804 177.537C48.0296 188.638 46.6353 203.264 50.9393 221.009ZM116.482 138.071C99.3808 138.071 85.4686 157.296 85.4686 180.927C85.4686 204.557 99.3808 223.782 116.482 223.782C133.584 223.782 147.496 204.557 147.496 180.927C147.496 157.296 133.584 138.071 116.482 138.071ZM285.841 223.118C285.876 222.995 285.895 222.87 285.941 222.749C286.038 222.491 295.679 196.306 285.483 176.75C280.441 167.081 271.207 160.47 258.042 157.107L258.027 157.102C257.329 156.923 256.685 156.579 256.148 156.1C255.61 155.621 255.195 155.021 254.937 154.348C254.679 153.676 254.586 152.952 254.664 152.237C254.743 151.521 254.992 150.834 255.39 150.235C255.726 147.186 255.885 144.121 255.866 141.054L255.875 140.646C255.985 135.866 255.839 130.307 253.914 125.3C251.284 118.45 245.824 114.011 241.709 111.494C238.951 109.817 236.002 108.477 232.925 107.502C232.128 107.293 226.456 106.247 224.033 105.8C221.139 105.266 219.295 104.921 218.289 103.594C195.775 123.122 169.494 137.824 141.072 146.79C147.804 155.415 152.007 167.525 152.007 180.927C152.128 191.542 149.305 201.983 143.851 211.091C157.129 207.07 173.593 200.565 186.951 190.522C186.461 187.347 186.215 184.139 186.217 180.927C186.217 154.81 202.153 133.56 221.742 133.56C241.33 133.56 257.267 154.81 257.267 180.927C257.267 207.044 241.33 228.293 221.742 228.293C205.936 228.293 192.514 214.455 187.917 195.391C172.329 206.568 153.279 213.294 139.416 217.059C133.223 224.059 125.218 228.293 116.482 228.293C111.229 228.259 106.091 226.754 101.649 223.95C76.9493 226.355 53.8618 226.69 46.3347 226.732C41.6863 228.818 25.4872 238.682 23.3705 240.322C18.6416 244.602 14.9717 249.922 12.6502 255.862C10.3288 261.803 9.41937 268.202 9.99357 274.554C10.701 281.009 12.9404 287.202 16.5255 292.616C20.1106 298.031 24.9375 302.511 30.6042 305.682C41.8297 311.863 55.1057 312.992 68.7841 311.947C115.55 304.391 251.093 278.125 285.841 223.118ZM221.742 223.782C238.843 223.782 252.756 204.557 252.756 180.927C252.756 157.296 238.843 138.071 221.742 138.071C204.64 138.071 190.728 157.296 190.728 180.927C190.728 204.557 204.64 223.782 221.742 223.782ZM288.272 228.443C288.134 228.372 288 228.294 287.871 228.21C261.706 265.746 192.405 289.518 135.833 303.248C138.213 303.648 140.583 304.146 142.923 304.642C145.547 305.198 148.023 305.724 150.364 306.068C172.687 309.362 195.177 311.403 217.729 312.182C221.411 312.303 225.134 312.473 228.879 312.643C248.071 313.506 267.912 314.407 285.954 308.997C304.446 303.453 323.739 288.396 324.841 270.342C325.823 254.175 313.519 240.078 288.272 228.443ZM221.929 205.738C231.272 205.738 238.846 194.882 238.846 181.491C238.846 168.1 231.272 157.244 221.929 157.244C212.586 157.244 205.012 168.1 205.012 181.491C205.012 194.882 212.586 205.738 221.929 205.738ZM224.53 238.527C225.865 240.84 225.687 243.875 224.037 246.86C213.024 266.765 189.384 279.891 165.371 279.893C163.796 279.893 162.223 279.836 160.651 279.721C158.049 279.531 155.462 279.179 152.904 278.666H152.906C136.082 275.292 120.447 264.946 107.694 248.752C105.489 245.952 104.643 242.97 105.313 240.351C105.628 239.163 106.242 238.076 107.097 237.193C107.952 236.31 109.019 235.661 110.196 235.309C111.659 234.963 113.176 234.908 114.661 235.146C147.399 238.52 176.86 238.881 204.737 236.245C206.314 236.095 207.9 235.875 209.488 235.657C211.788 235.34 214.162 235.011 216.53 234.888C220.099 234.703 223.108 236.062 224.53 238.527ZM220.623 240.782C219.964 239.646 218.145 239.32 216.764 239.395C214.59 239.507 212.411 239.806 210.105 240.124C208.453 240.353 206.803 240.58 205.162 240.734C176.988 243.406 147.234 243.04 114.196 239.633C113.649 239.565 113.099 239.525 112.548 239.514C112.176 239.506 111.803 239.55 111.443 239.644C111.021 239.778 110.639 240.015 110.332 240.334C110.024 240.653 109.801 241.043 109.683 241.47C109.244 243.185 110.623 245.181 111.235 245.959C119.661 256.657 133.883 270.25 153.791 274.243H153.794C156.165 274.719 158.564 275.046 160.976 275.223C184.53 276.917 209.352 264.087 220.09 244.675C220.748 243.485 221.233 241.837 220.623 240.782Z" fill="#231F20"/>
</svg>
