<svg width="58" height="518" viewBox="0 0 58 518" fill="none" xmlns="http://www.w3.org/2000/svg">
<path d="M24 154H34V514C34 516.209 32.2091 518 30 518H28C25.7909 518 24 516.209 24 514V154Z" fill="#B42A2A"/>
<path d="M0 120H58L34.1556 156H24.1667L0 120Z" fill="#B42A2A"/>
<path fill-rule="evenodd" clip-rule="evenodd" d="M0 7C0 3.13401 3.13401 0 7 0H51C54.866 0 58 3.13401 58 7V120H0V7ZM13 19.5C13 23.6421 11.2091 27 9 27C6.79086 27 5 23.6421 5 19.5C5 15.3579 6.79086 12 9 12C11.2091 12 13 15.3579 13 19.5ZM9 50C11.2091 50 13 46.6421 13 42.5C13 38.3579 11.2091 35 9 35C6.79086 35 5 38.3579 5 42.5C5 46.6421 6.79086 50 9 50ZM13 65.5C13 69.6421 11.2091 73 9 73C6.79086 73 5 69.6421 5 65.5C5 61.3579 6.79086 58 9 58C11.2091 58 13 61.3579 13 65.5ZM9 96C11.2091 96 13 92.6421 13 88.5C13 84.3579 11.2091 81 9 81C6.79086 81 5 84.3579 5 88.5C5 92.6421 6.79086 96 9 96ZM13 111.5C13 115.642 11.2091 119 9 119C6.79086 119 5 115.642 5 111.5C5 107.358 6.79086 104 9 104C11.2091 104 13 107.358 13 111.5ZM22.5 27C24.9853 27 27 23.6421 27 19.5C27 15.3579 24.9853 12 22.5 12C20.0147 12 18 15.3579 18 19.5C18 23.6421 20.0147 27 22.5 27ZM27 42.5C27 46.6421 24.9853 50 22.5 50C20.0147 50 18 46.6421 18 42.5C18 38.3579 20.0147 35 22.5 35C24.9853 35 27 38.3579 27 42.5ZM22.5 73C24.9853 73 27 69.6421 27 65.5C27 61.3579 24.9853 58 22.5 58C20.0147 58 18 61.3579 18 65.5C18 69.6421 20.0147 73 22.5 73ZM27 88.5C27 92.6421 24.9853 96 22.5 96C20.0147 96 18 92.6421 18 88.5C18 84.3579 20.0147 81 22.5 81C24.9853 81 27 84.3579 27 88.5ZM22.5 119C24.9853 119 27 115.642 27 111.5C27 107.358 24.9853 104 22.5 104C20.0147 104 18 107.358 18 111.5C18 115.642 20.0147 119 22.5 119ZM40 19.5C40 23.6421 38.2091 27 36 27C33.7909 27 32 23.6421 32 19.5C32 15.3579 33.7909 12 36 12C38.2091 12 40 15.3579 40 19.5ZM36 50C38.2091 50 40 46.6421 40 42.5C40 38.3579 38.2091 35 36 35C33.7909 35 32 38.3579 32 42.5C32 46.6421 33.7909 50 36 50ZM40 65.5C40 69.6421 38.2091 73 36 73C33.7909 73 32 69.6421 32 65.5C32 61.3579 33.7909 58 36 58C38.2091 58 40 61.3579 40 65.5ZM36 96C38.2091 96 40 92.6421 40 88.5C40 84.3579 38.2091 81 36 81C33.7909 81 32 84.3579 32 88.5C32 92.6421 33.7909 96 36 96ZM40 111.5C40 115.642 38.2091 119 36 119C33.7909 119 32 115.642 32 111.5C32 107.358 33.7909 104 36 104C38.2091 104 40 107.358 40 111.5ZM49 27C51.2091 27 53 23.6421 53 19.5C53 15.3579 51.2091 12 49 12C46.7909 12 45 15.3579 45 19.5C45 23.6421 46.7909 27 49 27ZM53 42.5C53 46.6421 51.2091 50 49 50C46.7909 50 45 46.6421 45 42.5C45 38.3579 46.7909 35 49 35C51.2091 35 53 38.3579 53 42.5ZM49 73C51.2091 73 53 69.6421 53 65.5C53 61.3579 51.2091 58 49 58C46.7909 58 45 61.3579 45 65.5C45 69.6421 46.7909 73 49 73ZM53 88.5C53 92.6421 51.2091 96 49 96C46.7909 96 45 92.6421 45 88.5C45 84.3579 46.7909 81 49 81C51.2091 81 53 84.3579 53 88.5ZM49 119C51.2091 119 53 115.642 53 111.5C53 107.358 51.2091 104 49 104C46.7909 104 45 107.358 45 111.5C45 115.642 46.7909 119 49 119Z" fill="#B42A2A"/>
</svg>
